<?xml version="1.0" encoding="utf-8"?>
<!-- Generator: Adobe Illustrator 24.1.2, SVG Export Plug-In . SVG Version: 6.00 Build 0)  -->
<svg version="1.1" id="圖層_1" focusable="false" xmlns="http://www.w3.org/2000/svg" xmlns:xlink="http://www.w3.org/1999/xlink"
	 x="0px" y="0px" viewBox="0 0 384 512" style="enable-background:new 0 0 384 512;" xml:space="preserve">
<path d="M335.3,199c0-29.8-24.1-53.9-53.9-53.9s-53.9,24.1-53.9,53.9c0,24.5,16.4,45.2,38.8,51.8c-0.4,10.9-2.8,19.2-7.4,24.9
	c-10.4,12.9-33.2,15.1-57.4,17.3c-19,1.8-38.7,3.6-54.8,11.4v-97.1c21.9-6.9,37.7-27.3,37.7-51.4c0-29.8-24.1-53.9-53.9-53.9
	S76.4,126,76.4,155.8c0,24.1,15.8,44.6,37.7,51.4v134.3c-21.9,6.9-37.7,27.4-37.7,51.5c0,29.8,24.1,53.9,53.9,53.9
	s53.9-24.1,53.9-53.9c0-22.9-14.3-42.5-34.5-50.3c2.1-3.5,5.3-6.6,10-9c10.9-5.5,27.2-7,44.6-8.6c28.4-2.6,60.7-5.7,79.7-29.3
	c9.4-11.7,14.2-26.8,14.6-45.8C319.9,242.8,335.3,222.7,335.3,199L335.3,199z M130.3,145c5.9,0,10.8,4.9,10.8,10.8
	c0,5.9-4.9,10.8-10.8,10.8c-5.9,0-10.8-4.9-10.8-10.8C119.6,149.9,124.4,145,130.3,145z M130.3,403.9c-5.9,0-10.8-4.9-10.8-10.8
	s4.9-10.8,10.8-10.8c5.9,0,10.8,4.9,10.8,10.8S136.3,403.9,130.3,403.9z M281.3,188.2c5.9,0,10.8,4.9,10.8,10.8s-4.9,10.8-10.8,10.8
	c-5.9,0-10.8-4.9-10.8-10.8S275.4,188.2,281.3,188.2z"/>
</svg>
