<?xml version="1.0" encoding="utf-8"?>
<!-- Generator: Adobe Illustrator 24.1.2, SVG Export Plug-In . SVG Version: 6.00 Build 0)  -->
<svg version="1.1" id="圖層_1" focusable="false" xmlns="http://www.w3.org/2000/svg" xmlns:xlink="http://www.w3.org/1999/xlink"
	 x="0px" y="0px" viewBox="0 0 448 512" style="enable-background:new 0 0 448 512;" xml:space="preserve">
<style type="text/css">
	.st0{fill:#FFFFFF;stroke:#231815;stroke-width:20;stroke-miterlimit:10;}
	.st1{fill:#FFFFFF;stroke:#231815;stroke-width:10;stroke-miterlimit:10;}
</style>
<path class="st0" d="M387.8,205L144.1,61C124.3,49.3,94,60.6,94,89.6v288c0,26,28.2,41.6,50.1,28.6l243.7-144
	C409.5,249.4,409.6,217.8,387.8,205L387.8,205z"/>
<path class="st1" d="M221.9,378c-0.2,6.1-5.3,10.8-11.4,10.8h-19.2v5.6c0,7.6-1.7,14.8-4.7,21.3l20.9,20.9c4.3,4.3,4.3,11.4,0,15.7
	c-4.3,4.3-11.4,4.3-15.7,0l-19-19c-8.6,7-19.6,11.2-31.5,11.2v-84.8c0-2.3-1.9-4.2-4.2-4.2h-8.3c-2.3,0-4.2,1.9-4.2,4.2v84.8
	c-11.9,0-22.9-4.2-31.5-11.2l-19,19c-4.3,4.3-11.4,4.3-15.7,0c-4.3-4.3-4.3-11.4,0-15.7l20.9-20.9c-3-6.5-4.7-13.7-4.7-21.3v-5.6
	H55.3c-6.1,0-11.2-4.8-11.4-10.8c-0.2-6.3,4.9-11.4,11.1-11.4h19.5v-20.4L58.3,330c-4.3-4.3-4.3-11.4,0-15.7
	c4.3-4.3,11.4-4.3,15.7,0l19,19h79.8l19-19c4.3-4.3,11.4-4.3,15.7,0c4.3,4.3,4.3,11.4,0,15.7l-16.2,16.2v20.4h19.5
	C217,366.6,222.1,371.7,221.9,378z M133.3,277.6c-21.5,0-38.9,17.4-38.9,38.9h77.9C172.2,295,154.8,277.6,133.3,277.6z"/>
</svg>
